<svg xmlns="http://www.w3.org/2000/svg" viewBox="0 0 134.14 136.88"><defs><style>.cls-1{fill:#fc893c;}.cls-2{fill:#ff4e50;}.cls-3{fill:#f9d423;}</style></defs><g id="Layer_2" data-name="Layer 2"><g id="OBJECTS"><path class="cls-1" d="M54.56,21.46a.39.39,0,0,1-.27-.11.38.38,0,0,1,0-.54l11.6-11.6a.4.4,0,0,1,.54,0,.38.38,0,0,1,0,.54l-11.6,11.6A.43.43,0,0,1,54.56,21.46Z"/><path class="cls-1" d="M58.65,26.29a1.12,1.12,0,0,1-.81-.34,1.14,1.14,0,0,1,0-1.61L64,18.42a1.14,1.14,0,1,1,1.58,1.64L59.45,26A1.13,1.13,0,0,1,58.65,26.29Z"/><path class="cls-1" d="M63.06,30.35a.78.78,0,0,1-.54-.21.77.77,0,0,1,0-1.08l10-10.17A.75.75,0,1,1,73.62,20l-10,10.18A.76.76,0,0,1,63.06,30.35Z"/><path class="cls-1" d="M71.29,128.72a.4.4,0,0,1-.27-.11.38.38,0,0,1,0-.54l11.61-11.59a.37.37,0,0,1,.53.53l-11.6,11.6A.39.39,0,0,1,71.29,128.72Z"/><path class="cls-1" d="M72.68,119.72a1.08,1.08,0,0,1-.81-.35,1.13,1.13,0,0,1,0-1.6L78,111.85a1.14,1.14,0,0,1,1.58,1.63l-6.12,5.92A1.09,1.09,0,0,1,72.68,119.72Z"/><path class="cls-1" d="M64.37,119.16a.73.73,0,0,1-.53-.22.76.76,0,0,1,0-1.07l10-10.18a.76.76,0,0,1,1.08,1.07l-10,10.18A.76.76,0,0,1,64.37,119.16Z"/><path class="cls-2" d="M16.88,122.17a3.79,3.79,0,0,1-1.47-.31s-.73,0-.73,0v0a4.43,4.43,0,0,1,.44-1.26c0-.06.4-.13.44-.19s.23-.15.28-.23.21-.2.29-.28c.68-.68,1.42-1.35,2.12-2a70.88,70.88,0,0,0-2-98,1.11,1.11,0,0,1-.31-.62A1.16,1.16,0,0,1,16.18,18a1.11,1.11,0,0,1,.81-.36c.3,0,.61.37.83.59a70.61,70.61,0,0,0,50,21h0A71.08,71.08,0,0,0,118.2,18c.21-.22.51-.81.81-.8l.8,0h.06c.23,0,.36.82.36,1.13a1.51,1.51,0,0,1-.34,1l-.46.54c-.05,0-.1.12-.15.16-26.36,26.63-27,70.62-1.47,98.2.26.21.42,0,.42.36,0,.63-.5.62-1.13.62h0c-.28,0-.56.43-.77.22a71.35,71.35,0,0,0-96.4,0c-.69.74-1.4,1.57-2.12,2.29a1.22,1.22,0,0,1-.91.53Zm50.9-23.55a73.38,73.38,0,0,1,41.85,13,73.72,73.72,0,0,1,.31-84A73,73,0,0,1,67.81,40.93,72.46,72.46,0,0,1,25.88,27.7,72.84,72.84,0,0,1,39.14,68.39a73.26,73.26,0,0,1-12.86,43.09A72.81,72.81,0,0,1,67.78,98.62Z"/><path class="cls-1" d="M93.85,136.88a2.42,2.42,0,0,1-.54-.06c-.19-.08-.63-.24-.63-.43h0c0-.08.07-.18,0-.3-.27-.71-.42-1.43-.67-2.16A71.37,71.37,0,0,0,26,90.09,70.13,70.13,0,0,0,1.22,94.61a.74.74,0,0,1-.51,0,.81.81,0,0,1-.65-.46.78.78,0,0,1,0-.6.75.75,0,0,1,.43-.41A71.54,71.54,0,0,0,41.93,1.08a.75.75,0,0,1,.44-1l.13,0a.72.72,0,0,1,.59,0l.06,0a.8.8,0,0,1,.39.4s0,.06,0,.07l.08.19c0,.13.06-.57,0-.43C54.24,27.67,81,45.17,110.47,45.17h0c7.7,0,15.33-.42,22.66-2.88.39-.14.81.48,1,.86a1,1,0,0,1-.41,1.18,71.74,71.74,0,0,0-40.1,89c.31.75.61,1.56.91,2.33,0,.06.06.15.08.2a.78.78,0,0,1-.28.9.59.59,0,0,1-.17.1A.66.66,0,0,1,93.85,136.88ZM26.07,88.58a73,73,0,0,1,63.84,37.3A73.26,73.26,0,0,1,125.7,46.74a72,72,0,0,1-15.22,1.62,73.56,73.56,0,0,1-64.19-38,73.14,73.14,0,0,1-36.1,80A71.64,71.64,0,0,1,26.07,88.58Z"/><path class="cls-3" d="M38.49,135.74a.37.37,0,0,1-.17-.05.37.37,0,0,1-.19-.5l0-.06s0-.06,0-.09a.34.34,0,0,1,0-.2c.31-.69.64-1.38,1-2.06,14.46-35.33-2-76.87-36.65-92.6a.39.39,0,0,1-.2-.22,0,0,0,0,1,0,0,.4.4,0,0,1-.12-.42.38.38,0,0,1,.21-.22c.1,0,.21-.78.31-.74,9.36,4.22,19.26,5.62,29.42,5.62h0C60.27,44.17,86,28.29,97.6,2.57c0-.09.12.2.22.17s.19.15.29.2l.12.15a.43.43,0,0,1,.21.25.2.2,0,0,1,0,.07.47.47,0,0,1,0,.33L98.34,4a.44.44,0,0,1-.19.19A71.6,71.6,0,0,0,131.8,97.69c.16,0,.28-.44.28-.27s-.17-.25-.38-.25h0c-.05,0-.1.62-.15.6a71,71,0,0,0-27.1-5,72.46,72.46,0,0,0-64.58,40.18c-.31.76-.63,1.6-1,2.35a.87.87,0,0,1,0,.19.43.43,0,0,1-.22.22l0,0ZM8.74,41.88a72.75,72.75,0,0,1,31.37,36.6,72.79,72.79,0,0,1,1.6,49.44,73.12,73.12,0,0,1,62.73-35.69,71.78,71.78,0,0,1,22.45,3.62,72.25,72.25,0,0,1-31.38-38,74,74,0,0,1-.42-48.55C82.22,31.65,58.21,45.17,32.14,45.17h0C24.13,45.17,16.29,44.48,8.74,41.88Z"/><path class="cls-1" d="M66.36,124.47h0a1.7,1.7,0,0,1,.1-.14.83.83,0,0,1,.08-.12,2.61,2.61,0,0,0,.17-.28,2.07,2.07,0,0,0,.26-.66,2,2,0,0,0,0-.69,2.55,2.55,0,0,0-.18-.67,2.36,2.36,0,0,0-.4-.59.24.24,0,0,1-.06-.08c0-.07.06,0,.09,0a1.79,1.79,0,0,0,.14.13,1.61,1.61,0,0,0,.3.21,2.64,2.64,0,0,0,.68.25l.41,0a2,2,0,0,0,.73-.12,2.11,2.11,0,0,0,.64-.35l.14-.12s.09-.08.11-.08,0,.06,0,.08l-.11.13-.1.14a2.9,2.9,0,0,0-.19.29,2.07,2.07,0,0,0-.21.65,2.58,2.58,0,0,0,0,.68,2.07,2.07,0,0,0,.2.64,4.24,4.24,0,0,0,.33.59s0,.06,0,.08-.06,0-.08,0a.74.74,0,0,0-.13-.12,3.13,3.13,0,0,0-.3-.2,2.55,2.55,0,0,0-.67-.24,1.75,1.75,0,0,0-.4,0,2.17,2.17,0,0,0-1.5.58S66.39,124.48,66.36,124.47Z"/><path class="cls-1" d="M46.65,50.18h0a1.13,1.13,0,0,0,.1-.13l.08-.12.17-.28a2.3,2.3,0,0,0,.27-.67,1.94,1.94,0,0,0,0-.68,2.22,2.22,0,0,0-.18-.67,2.36,2.36,0,0,0-.4-.59s-.05-.05-.06-.08.07,0,.09,0l.14.13.3.21a2.36,2.36,0,0,0,.69.24,1.84,1.84,0,0,0,.41,0,2.22,2.22,0,0,0,.72-.12,2,2,0,0,0,.64-.35l.14-.12s.09-.09.11-.08,0,.06,0,.08l-.11.13-.1.14a1.75,1.75,0,0,0-.18.29,2.11,2.11,0,0,0-.22.64,2.58,2.58,0,0,0,0,.68,2.73,2.73,0,0,0,.2.65c.1.2.21.4.33.59,0,0,.05,0,0,.07s-.06,0-.07,0a.53.53,0,0,0-.14-.12l-.29-.2a2.34,2.34,0,0,0-.67-.24,1.84,1.84,0,0,0-.41,0,2.23,2.23,0,0,0-1.5.57S46.68,50.2,46.65,50.18Z"/><path class="cls-1" d="M57.26,10.77h0l.09-.14.08-.11.18-.29a2.67,2.67,0,0,0,.26-.66,2,2,0,0,0,0-.69,2.22,2.22,0,0,0-.18-.67,2.12,2.12,0,0,0-.4-.59.24.24,0,0,1-.06-.08c0-.06.07,0,.09,0l.14.13a2.11,2.11,0,0,0,.31.21,2.06,2.06,0,0,0,.68.25,2.71,2.71,0,0,0,.41,0A2.22,2.22,0,0,0,59.6,8a2,2,0,0,0,.64-.36l.15-.12a.44.44,0,0,1,.11-.08s0,.06,0,.09a.64.64,0,0,0-.1.13.76.76,0,0,0-.11.14,1.67,1.67,0,0,0-.18.28,2.17,2.17,0,0,0-.22.65,2.58,2.58,0,0,0,0,.68,2.8,2.8,0,0,0,.2.64,5.6,5.6,0,0,0,.33.59s.06.06,0,.08-.06,0-.07,0a.8.8,0,0,0-.13-.13,2.49,2.49,0,0,0-.3-.19,2.18,2.18,0,0,0-1.07-.29,2.21,2.21,0,0,0-1.51.58S57.29,10.78,57.26,10.77Z"/></g></g></svg>