<svg xmlns="http://www.w3.org/2000/svg" viewBox="0 0 119.16 114.71"><defs><style>.cls-1{fill:#24c6dc;}.cls-2{fill:#514a9d;}.cls-3{fill:#3a8abd;}</style></defs><g id="Layer_2" data-name="Layer 2"><g id="OBJECTS"><path class="cls-1" d="M47.25,30.32a.38.38,0,0,1-.25-.08L31.87,19.42a.44.44,0,0,1-.1-.6.43.43,0,0,1,.6-.1L47.5,29.54a.44.44,0,0,1,.1.6A.44.44,0,0,1,47.25,30.32Z"/><path class="cls-1" d="M50.13,25.46a1.31,1.31,0,0,1-.75-.24l-6.54-4.68a1.29,1.29,0,0,1,1.5-2.1l6.54,4.68a1.29,1.29,0,0,1-.75,2.34Z"/><path class="cls-1" d="M53.62,19.52a.85.85,0,0,1-.5-.16L41.69,11.18a.85.85,0,0,1-.2-1.2.87.87,0,0,1,1.2-.2L54.12,18a.86.86,0,0,1,.2,1.2A.85.85,0,0,1,53.62,19.52Z"/><polygon class="cls-1" points="32.9 22.53 29.67 24.73 33.18 26.43 32.9 22.53"/><path class="cls-1" d="M97.35,72.94a.43.43,0,0,1-.4-.27.43.43,0,0,1,.23-.56L114.36,65a.43.43,0,1,1,.33.79L97.51,72.9A.32.32,0,0,1,97.35,72.94Z"/><path class="cls-1" d="M101.28,79.06a1.29,1.29,0,0,1-.49-2.48l7.43-3.07a1.28,1.28,0,0,1,1.68.69,1.3,1.3,0,0,1-.7,1.69L101.77,79A1.23,1.23,0,0,1,101.28,79.06Z"/><path class="cls-1" d="M104.21,84.41a.83.83,0,0,1-.79-.53.85.85,0,0,1,.46-1.12l13-5.38a.87.87,0,0,1,1.13.47.86.86,0,0,1-.47,1.12l-13,5.38A1,1,0,0,1,104.21,84.41Z"/><polygon class="cls-1" points="112.09 63.11 109.62 60.09 108.23 63.74 112.09 63.11"/><path class="cls-1" d="M2.17,113a.27.27,0,0,1,.07-.22L56.35,1a.33.33,0,0,1,.56,0l62.2,107.53a.31.31,0,0,1,0,.31.32.32,0,0,1-.27.16L2.51,113.3h0A.31.31,0,0,1,2.17,113ZM56.66,1.85,3,112.65l115.29-4.24Z"/><path class="cls-2" d="M117.14,114.7.9,108.25a1,1,0,0,1-.79-.51,1,1,0,0,1,0-.94L64.35.46A1,1,0,0,1,66,.55l52,112.81a.95.95,0,0,1-.8,1.34ZM2.58,106.43l113.09,6.29L65.05,3Z"/><path class="cls-3" d="M.32,110.69a.62.62,0,0,1,0-.62L60.5,1.39a.65.65,0,0,1,.56-.33.67.67,0,0,1,.56.35l56.22,110.78a.62.62,0,0,1,0,.62.64.64,0,0,1-.55.3L.86,111h0A.66.66,0,0,1,.32,110.69ZM61,3.05,1.94,109.76l114.29,2.06Z"/><polygon class="cls-1" points="14.9 100.67 12.43 97.64 11.05 101.3 14.9 100.67"/></g></g></svg>