<svg xmlns="http://www.w3.org/2000/svg" viewBox="0 0 122.6 147.39"><defs><style>.cls-1{fill:#3a8abd;}.cls-2{fill:#514a9d;}.cls-3{fill:#24c6dc;}</style></defs><g id="Layer_2" data-name="Layer 2"><g id="OBJECTS"><path class="cls-1" d="M68.39,14.28l-.09,0a.39.39,0,0,1-.1-.54L77.82.16a.39.39,0,0,1,.54-.09.39.39,0,0,1,.09.54L68.83,14.14A.39.39,0,0,1,68.39,14.28Z"/><path class="cls-1" d="M73.14,17.75a1.59,1.59,0,0,1-.29-.15,1.15,1.15,0,0,1-.28-1.6l4.7-6.65a1.15,1.15,0,0,1,1.88,1.32l-4.69,6.66A1.18,1.18,0,0,1,73.14,17.75Z"/><path class="cls-1" d="M78.33,21.26l-.16-.08a.76.76,0,0,1-.23-1.06L85.58,8.36a.77.77,0,0,1,1.29.84L79.22,21A.76.76,0,0,1,78.33,21.26Z"/><path class="cls-1" d="M56.24,133.11l.1,0a.39.39,0,0,1,.09.54l-9.62,13.53a.37.37,0,0,1-.53.09.38.38,0,0,1-.09-.53l9.62-13.54A.38.38,0,0,1,56.24,133.11Z"/><path class="cls-1" d="M51.5,129.64a1.51,1.51,0,0,1,.28.15,1.16,1.16,0,0,1,.28,1.61L47.37,138a1.15,1.15,0,1,1-1.88-1.32l4.69-6.65A1.16,1.16,0,0,1,51.5,129.64Z"/><path class="cls-1" d="M46.3,126.13l.17.08a.76.76,0,0,1,.23,1.06L39.06,139a.77.77,0,0,1-1.06.22.76.76,0,0,1-.23-1.06l7.64-11.75A.77.77,0,0,1,46.3,126.13Z"/><path class="cls-2" d="M72.27,134.59,14.7,114.51a1.15,1.15,0,0,1-.75-.87L2.6,53.63A1.15,1.15,0,0,1,3,52.54L49.19,12.61a1.14,1.14,0,0,1,1.13-.21l57.57,20.08a1.16,1.16,0,0,1,.76.87l11.35,60a1.15,1.15,0,0,1-.38,1.09L73.4,134.38A1.13,1.13,0,0,1,72.27,134.59Zm-56.18-22L72.4,132.2l45.22-39.06L106.51,34.43,50.19,14.79,5,53.85Z"/><path class="cls-1" d="M56.6,135.14l-.18-.09L6,100.64a.77.77,0,0,1-.33-.69L10.07,39a.78.78,0,0,1,.43-.63L65.41,11.89a.76.76,0,0,1,.77.06l50.46,34.4A.77.77,0,0,1,117,47L112.53,108a.78.78,0,0,1-.43.63L57.19,135.1A.81.81,0,0,1,56.6,135.14ZM7.19,99.62l49.73,33.91L111,107.4l4.38-60L65.68,13.46,11.57,39.59Z"/><path class="cls-3" d="M26.77,124.32a.34.34,0,0,1-.22-.2L0,69.21a.37.37,0,0,1,0-.38l34.4-50.46a.4.4,0,0,1,.35-.17l60.91,4.45a.38.38,0,0,1,.32.21l26.51,54.91a.39.39,0,0,1,0,.39L88.12,128.62a.37.37,0,0,1-.34.17l-60.92-4.45ZM.83,69.08l26.31,54.51L87.61,128l34.16-50.1L95.46,23.4,35,19Z"/><path class="cls-1" d="M66.36,5.17l.72-1h0l1.27.11,0,0L69,5.42v0l-.72,1h0L67,6.39h0l-.57-1.16Z"/><path class="cls-1" d="M33.63,32.49l.72-1s0,0,0,0l1.27.11h0l.55,1.15v0l-.72,1h0l-1.26-.1h0l-.57-1.16Z"/><path class="cls-1" d="M41.57,142.48l.71-1h0l1.28.11s0,0,0,0l.55,1.14v0l-.72,1h0l-1.26-.1h0l-.58-1.16S41.56,142.49,41.57,142.48Z"/></g></g></svg>