<svg xmlns="http://www.w3.org/2000/svg" viewBox="0 0 123.07 140.86"><defs><style>.cls-1{fill:#fff;}.cls-2{fill:#bb377d;}.cls-3{fill:#db85b3;}.cls-4{fill:#fbd3e9;}</style></defs><g id="Layer_2" data-name="Layer 2"><g id="OBJECTS"><path class="cls-1" d="M98.79,126a1.17,1.17,0,0,1-.44-.08L61.54,112.09,24.72,125.91A1.25,1.25,0,0,1,23,124.68L24.8,85.4.27,54.65a1.26,1.26,0,0,1-.21-1.17,1.24,1.24,0,0,1,.86-.82L38.83,42.21,60.49,9.38a1.3,1.3,0,0,1,2.09,0L84.24,42.21l37.91,10.45a1.24,1.24,0,0,1,.86.82,1.26,1.26,0,0,1-.21,1.17L98.28,85.4l1.77,39.28a1.25,1.25,0,0,1-.52,1.07A1.23,1.23,0,0,1,98.79,126ZM61.54,109.5a1.11,1.11,0,0,1,.44.08L97.46,122.9,95.75,85A1.26,1.26,0,0,1,96,84.2l23.63-29.62L83.12,44.5a1.28,1.28,0,0,1-.71-.52L61.54,12.35,40.66,44a1.25,1.25,0,0,1-.71.52L3.42,54.57,27.05,84.2a1.21,1.21,0,0,1,.27.84l-1.7,37.86L61.1,109.58A1.11,1.11,0,0,1,61.54,109.5Z"/><path class="cls-2" d="M98.79,126a1.17,1.17,0,0,1-.44-.08L61.54,112.09,24.72,125.91A1.25,1.25,0,0,1,23,124.68L24.8,85.4.27,54.65a1.26,1.26,0,0,1-.21-1.17,1.24,1.24,0,0,1,.86-.82L38.83,42.21,60.49,9.38a1.3,1.3,0,0,1,2.09,0L84.24,42.21l37.91,10.45a1.24,1.24,0,0,1,.86.82,1.26,1.26,0,0,1-.21,1.17L98.28,85.4l1.77,39.28a1.25,1.25,0,0,1-.52,1.07A1.23,1.23,0,0,1,98.79,126ZM61.54,109.5a1.11,1.11,0,0,1,.44.08L97.46,122.9,95.75,85A1.26,1.26,0,0,1,96,84.2l23.63-29.62L83.12,44.5a1.28,1.28,0,0,1-.71-.52L61.54,12.35,40.66,44a1.25,1.25,0,0,1-.71.52L3.42,54.57,27.05,84.2a1.21,1.21,0,0,1,.27.84l-1.7,37.86L61.1,109.58A1.11,1.11,0,0,1,61.54,109.5Z"/><path class="cls-3" d="M51.9,135.93h-.16a.83.83,0,0,1-.62-.51l-15-36.52L.79,81.27a.83.83,0,0,1-.17-1.38l30.1-25.56,5.84-39a.83.83,0,0,1,1.27-.58l33.6,20.72,38.94-6.51a.84.84,0,0,1,.75.26.83.83,0,0,1,.2.77L102,68.3l18.23,35a.87.87,0,0,1,0,.8.85.85,0,0,1-.67.42l-39.37,3L52.49,135.69A.82.82,0,0,1,51.9,135.93ZM2.67,80.34l34.48,17.2a.84.84,0,0,1,.4.43l14.64,35.64,27-27.48a.88.88,0,0,1,.53-.25L118.15,103,100.37,68.79a.83.83,0,0,1-.08-.58l9.11-37.44-38,6.36a.84.84,0,0,1-.58-.12L38,16.78l-5.7,38.11a.85.85,0,0,1-.29.51Z"/><path class="cls-4" d="M68.85,135.81a.41.41,0,0,1-.3-.14l-26.81-29.2-39.4-4.35A.43.43,0,0,1,2,101.9a.43.43,0,0,1,0-.4L21.52,67l-8-38.81a.41.41,0,0,1,.12-.38.44.44,0,0,1,.38-.12l38.85,7.88L87.24,15.9a.42.42,0,0,1,.63.32L92.39,55.6l29.32,26.67a.45.45,0,0,1,.13.38.39.39,0,0,1-.24.31L85.54,99.43l-16.3,36.13a.42.42,0,0,1-.32.24ZM3.06,101.36,42,105.65a.45.45,0,0,1,.26.14l26.48,28.85,16.12-35.7a.39.39,0,0,1,.2-.2l35.63-16.27-29-26.36a.4.4,0,0,1-.14-.26L87.11,16.94l-34,19.41a.41.41,0,0,1-.29,0L14.42,28.62l8,38.35a.42.42,0,0,1-.05.29Z"/><path class="cls-3" d="M36.91,15.56l-.11-.05a.41.41,0,0,1-.09-.58L47.19.18a.41.41,0,0,1,.58-.1.42.42,0,0,1,.1.58L37.39,15.41A.41.41,0,0,1,36.91,15.56Z"/><path class="cls-3" d="M42.19,19.19a1.14,1.14,0,0,1-.31-.16,1.24,1.24,0,0,1-.3-1.75L46.69,10a1.26,1.26,0,0,1,2.05,1.45l-5.12,7.25A1.26,1.26,0,0,1,42.19,19.19Z"/><path class="cls-3" d="M48,22.78a.76.76,0,0,1-.18-.09.84.84,0,0,1-.24-1.15L55.91,8.72a.84.84,0,0,1,1.4.92L49,22.45A.83.83,0,0,1,48,22.78Z"/><path class="cls-3" d="M51.81,134.48a.31.31,0,0,1,0,.1.42.42,0,0,1-.26.53l-17.17,5.72a.41.41,0,0,1-.53-.26.43.43,0,0,1,.27-.53l17.16-5.72A.42.42,0,0,1,51.81,134.48Z"/><path class="cls-3" d="M49.69,128.44a1.48,1.48,0,0,1,.15.31,1.26,1.26,0,0,1-.78,1.59l-8.41,2.83a1.25,1.25,0,1,1-.8-2.37l8.4-2.84A1.27,1.27,0,0,1,49.69,128.44Z"/><path class="cls-3" d="M47.11,122.1a.76.76,0,0,1,.09.18.83.83,0,0,1-.48,1.08l-14.28,5.43a.84.84,0,1,1-.6-1.56l14.29-5.43A.83.83,0,0,1,47.11,122.1Z"/><path class="cls-3" d="M36.27,3.58l.78-1.14h.06l1.38.12s0,0,0,0l.6,1.24v0L38.34,5h0L36.94,4.9h0L36.3,3.62S36.27,3.59,36.27,3.58Z"/><path class="cls-3" d="M34.63,133.64l.37-1.33h0L36.4,132h0l1,1s0,0,0,0l-.37,1.32,0,0-1.33.35h0l-1-1S34.63,133.65,34.63,133.64Z"/><path class="cls-3" d="M36.6,49.44l-1.07-.87s0,0,0-.06l.23-1.37,0,0,1.29-.5h0l1.07.87a0,0,0,0,1,0,0L38,48.88v0l-1.31.52Z"/></g></g></svg>